<svg id="Group_32" data-name="Group 32" xmlns="http://www.w3.org/2000/svg" width="21" height="21" viewBox="0 0 21 21">
  <path id="Path_95" data-name="Path 95" d="M291.614-56.915c2.8,0,3.136.01,4.243.061a5.809,5.809,0,0,1,1.95.362,3.248,3.248,0,0,1,1.207.785A3.25,3.25,0,0,1,299.8-54.5a5.842,5.842,0,0,1,.361,1.95c.051,1.107.061,1.439.061,4.243s-.01,3.136-.061,4.243a5.841,5.841,0,0,1-.361,1.949,3.254,3.254,0,0,1-.786,1.208,3.248,3.248,0,0,1-1.207.785,5.809,5.809,0,0,1-1.95.362c-1.107.05-1.439.061-4.243.061s-3.136-.011-4.243-.061a5.808,5.808,0,0,1-1.949-.362,3.252,3.252,0,0,1-1.208-.785,3.252,3.252,0,0,1-.785-1.208,5.809,5.809,0,0,1-.362-1.949c-.05-1.107-.061-1.44-.061-4.243s.011-3.136.061-4.243a5.811,5.811,0,0,1,.362-1.95,3.248,3.248,0,0,1,.785-1.207,3.252,3.252,0,0,1,1.208-.785,5.808,5.808,0,0,1,1.949-.362c1.107-.051,1.44-.061,4.243-.061m0-1.892c-2.851,0-3.209.012-4.329.063a7.722,7.722,0,0,0-2.549.488,5.145,5.145,0,0,0-1.86,1.211,5.163,5.163,0,0,0-1.211,1.86,7.721,7.721,0,0,0-.488,2.549c-.051,1.12-.063,1.477-.063,4.329s.012,3.209.063,4.329a7.721,7.721,0,0,0,.488,2.549,5.172,5.172,0,0,0,1.211,1.86,5.172,5.172,0,0,0,1.86,1.211,7.722,7.722,0,0,0,2.549.488c1.12.051,1.478.063,4.329.063s3.209-.012,4.329-.063a7.722,7.722,0,0,0,2.549-.488,5.163,5.163,0,0,0,1.86-1.211,5.145,5.145,0,0,0,1.211-1.86,7.7,7.7,0,0,0,.488-2.549c.051-1.12.063-1.478.063-4.329s-.012-3.209-.063-4.329a7.7,7.7,0,0,0-.488-2.549,5.137,5.137,0,0,0-1.211-1.86,5.137,5.137,0,0,0-1.86-1.211,7.722,7.722,0,0,0-2.549-.488c-1.12-.051-1.477-.063-4.329-.063Z" transform="translate(-281.114 58.807)" fill="#fff"/>
  <path id="Path_96" data-name="Path 96" d="M291.614-53.7a5.392,5.392,0,0,0-5.392,5.392,5.392,5.392,0,0,0,5.392,5.392,5.392,5.392,0,0,0,5.392-5.392A5.392,5.392,0,0,0,291.614-53.7Zm0,8.892a3.5,3.5,0,0,1-3.5-3.5,3.5,3.5,0,0,1,3.5-3.5,3.5,3.5,0,0,1,3.5,3.5A3.5,3.5,0,0,1,291.614-44.807Z" transform="translate(-281.114 58.807)" fill="#fff"/>
  <circle id="Ellipse_8" data-name="Ellipse 8" cx="1.26" cy="1.26" r="1.26" transform="translate(14.845 3.635)" fill="#fff"/>
</svg>
