<?xml version="1.0" encoding="utf-8"?>
<!-- Generator: Adobe Illustrator 26.3.1, SVG Export Plug-In . SVG Version: 6.00 Build 0)  -->
<svg version="1.1" id="Layer_1" xmlns="http://www.w3.org/2000/svg" xmlns:xlink="http://www.w3.org/1999/xlink" x="0px" y="0px" viewBox="0 0 904.3 365.7" xml:space="preserve">
	<style type="text/css">
	.st1{fill:#FFFFFF;}
	.st2{clip-path:url(#SVGID_00000052797766685333274510000002317910207452419257_);}
	.st3{fill:#80EEFF;}
</style>
	<g>
		<g>
			<path class="st1" d="M514.8,124.9V39.6h17.2l52.3,62.3V39.6H600v85.3h-17.2l-52.5-62.4v62.4H514.8z" />
			<path class="st1" d="M641,124.9c-3,0-5.7-0.8-8.2-2.2c-2.5-1.5-4.5-3.5-5.9-6c-1.5-2.5-2.2-5.2-2.2-8.1V82.7h54.2v-9.6
			c0-0.4-0.1-0.7-0.4-1c-0.3-0.3-0.6-0.4-1-0.4h-52.8V56.2h53.4c3,0,5.7,0.7,8.2,2.2c2.5,1.5,4.5,3.4,5.9,5.9
			c1.5,2.5,2.2,5.2,2.2,8.2v52.3H641z M641.6,109.4h37.3V96.7h-38.7V108c0,0.4,0.1,0.7,0.4,1C640.9,109.3,641.2,109.4,641.6,109.4z" />
			<path class="st1" d="M726.9,122.7c-2.5-1.5-4.5-3.5-5.9-6c-1.5-2.5-2.2-5.2-2.2-8.1V56.2h15.5V108c0,0.4,0.1,0.7,0.4,1
			c0.3,0.3,0.6,0.4,1,0.4h35.9c0.4,0,0.7-0.1,1-0.4c0.3-0.3,0.4-0.6,0.4-1V56.2h15.5v52.3c0,2.9-0.7,5.6-2.2,8.1
			c-1.5,2.5-3.4,4.5-5.9,6c-2.5,1.5-5.2,2.2-8.3,2.2h-37.1C732.2,124.9,729.4,124.2,726.9,122.7z" />
			<path class="st1" d="M818.3,122.7c-2.5-1.5-4.5-3.5-6-6c-1.5-2.5-2.3-5.2-2.3-8.1v-36c0-3,0.8-5.7,2.3-8.2c1.5-2.5,3.5-4.4,6-5.9
			c2.5-1.5,5.2-2.3,8.1-2.3h53.3v15.5H827c-0.4,0-0.7,0.1-1,0.4c-0.3,0.3-0.4,0.6-0.4,1V108c0,0.4,0.1,0.7,0.4,1
			c0.3,0.3,0.6,0.4,1,0.4h52.8v15.5h-53.4C823.4,124.9,820.7,124.2,818.3,122.7z" />
		</g>
		<g>
			<path class="st1" d="M514.5,273v-68.7h85.2c3.1,0,5.8,0.8,8.3,2.3c2.4,1.5,4.4,3.5,5.9,5.9c1.5,2.4,2.2,5.2,2.2,8.2V273h-15.4
			v-51.8c0-0.4-0.2-0.7-0.5-1c-0.3-0.3-0.7-0.4-1.1-0.4h-24.5c-0.4,0-0.7,0.1-1,0.4c-0.3,0.3-0.4,0.6-0.4,1V273h-15.6v-51.8
			c0-0.4-0.1-0.7-0.4-1c-0.3-0.3-0.6-0.4-1-0.4h-24.6c-0.4,0-0.7,0.1-1,0.4c-0.3,0.3-0.4,0.6-0.4,1V273H514.5z" />
			<path class="st1" d="M646.8,270.7c-2.5-1.5-4.5-3.5-6-6c-1.5-2.5-2.3-5.2-2.3-8.1v-36c0-3,0.8-5.7,2.3-8.2c1.5-2.5,3.5-4.4,6-5.9
			c2.5-1.5,5.2-2.3,8.1-2.3h37.1c3,0,5.7,0.7,8.2,2.2c2.5,1.5,4.5,3.4,5.9,5.9c1.5,2.5,2.2,5.2,2.2,8.2v25.8h-54.2v9.6
			c0,0.4,0.1,0.7,0.4,1c0.3,0.3,0.6,0.4,1,0.4h52.8V273h-53.4C652,273,649.3,272.2,646.8,270.7z M654.1,232.4h38.7v-11.3
			c0-0.4-0.1-0.7-0.4-1c-0.3-0.3-0.6-0.4-1-0.4h-35.9c-0.4,0-0.7,0.1-1,0.4c-0.3,0.3-0.4,0.6-0.4,1V232.4z" />
			<path class="st1" d="M779.3,273v-85.3h15.5V273H779.3z" />
			<path class="st1" d="M850.4,273v-69.5h-34.8v-15.8h85.3v15.8h-34.7V273H850.4z" />
		</g>
		<g id="Group_10508" transform="translate(3.407 13.648)">
			<g>
				<defs>
					<rect id="SVGID_1_" x="0.2" y="-9.8" width="387.6" height="357.9" />
				</defs>
				<clipPath id="SVGID_00000067227952466362834980000001569741671869724333_">
					<use xlink:href="#SVGID_1_" style="overflow:visible;" />
				</clipPath>
				<g id="Group_10507" style="clip-path:url(#SVGID_00000067227952466362834980000001569741671869724333_);">
					<path id="Path_5829" class="st3" d="M171.7,123.6c1.8-0.1,3.7-0.1,5.5,0c13.9,3,28.2-3,35.8-15c4.7-6.7,12.8-10.2,20.9-9
					c12.8,0.7,25.6,0.6,38.4,0.2c8.3-0.3,11.1,2.7,12.1,11.2c2.6,15.4-4.1,30.9-17.2,39.5c-5.4,3.6-7.9,10.3-6.2,16.6
					c2.1,15.8-5.2,23.8-24.8,26.8c-8,1.2-19.1-12.2-19.4-22.8c-0.4-12.4,9.3-22.7,21.6-23.2c0.7,0,1.3,0,2,0
					c11.5,0.2,29.4-15.9,29.7-26.3c0.2-5.2-0.8-8.2-7.1-7.9c-9.9,0.5-19.7,0.5-29.6-0.1c-5.6,0.1-10.7,3.3-13.2,8.2
					c-8.4,12.3-23.3,18.6-38,15.9c-9.1-0.6-18.3-0.7-27.4-0.3c-7.9-1-15.9,1.2-22.2,6c-7.8,6-18.8,5.8-26.4-0.4
					c-7.8-6.6-10.9-17.2-8.1-27c5.1-9.2,15.2-14.5,25.7-13.3c5.1,2.1,11,0.3,14.2-4.2c3-3.8,7.8-5.8,12.6-5.2
					c4.7-0.3,9.5-0.2,14.2,0.3c18.1,4,28.2-7.4,38.8-18.7c2.9-3.1,1.9-5.4,0.8-8.7c-4.9-11.1,0.1-24.1,11.2-29
					c1.5-0.7,3-1.2,4.6-1.5c12.1-2.7,24,4.9,26.7,16.9c2.7,12.1-4.9,24-16.9,26.7c-1.7,0.4-3.4,0.6-5.1,0.5
					c-4.8-0.4-9.4,1.8-12.1,5.7c-11.6,17.9-33.1,26.6-53.9,21.9c-5.5-1.4-11.2,0.4-14.9,4.7c-1.9,2.2-2.4,5.3-1.2,7.9
					c1.1,3.3,3.3,3.3,6,3.3C156.3,123.5,164,123.6,171.7,123.6 M247.9,170.5c0.1-4.6-3.5-8.5-8.2-8.6c0,0,0,0-0.1,0
					c-4.2-0.6-8.1,2.3-8.7,6.6c-0.1,0.4-0.1,0.8-0.1,1.2c-0.7,4.3,2.1,8.3,6.4,9.1c0.7,0.1,1.4,0.1,2.1,0.1
					C244.5,178.9,247.1,175.4,247.9,170.5 M233.3,57.4c0.2-4.3-3.1-7.9-7.3-8.1c-0.3,0-0.6,0-0.8,0c-4.3-0.5-8.3,2.6-8.8,6.9
					c-0.1,0.7-0.1,1.3,0,2c0.4,4.7,4.5,8.1,9.2,7.8C229.9,65.6,233.3,61.9,233.3,57.4 M129.3,125.2c0.2-4.4-3.2-8.2-7.6-8.4
					c-0.1,0-0.3,0-0.4,0c-4.1-0.8-8,1.9-8.8,5.9c-0.1,0.5-0.1,0.9-0.1,1.4c-0.8,4.2,1.9,8.2,6.1,9.1c0.7,0.1,1.4,0.2,2.2,0.1
					C125.8,133.4,128.4,130.3,129.3,125.2" />
					<path id="Path_5830" class="st3" d="M104.1,163.3c12.1,0,24.1,0.1,36.2,0c10.9-0.1,21.2,1.7,29.6-10.1c6.8-9.6,23-6.7,30.9,2.7
					c7.9,9.4,6.8,23.5-2.7,31.4c-8.7,8-22.2,7.4-30.2-1.3c-0.3-0.4-0.7-0.8-1-1.2c-4.1-6-11.2-9.1-18.4-7.9
					c-32.5,0.3-65,0.1-97.6,0.3c-6.6,0.7-13.2-2-17.3-7.2c-3-4.1-7.9-6.5-13-6.3c-9.1-0.3-17-6.7-19.1-15.5
					c-3.5-8.1-0.8-17.6,6.3-22.7c6.1-3.6,9.1-10.9,7.1-17.7c-3.5-18.3,4.3-36.9,19.7-47.3c8.3-6.4,15.8-13.4,14.2-27
					c-1.4-11.9,11.6-20.7,24.2-19.5C85.4,15.4,94.3,26.4,93,38.7c0,0.3-0.1,0.6-0.1,1c-1.2,11.6-11.5,20-23.1,18.9
					c-0.7-0.1-1.4-0.2-2-0.3c-6.3-1.9-13.1,0.6-16.6,6.1c-1.8,2.3-3.9,4.4-6.2,6.2c-16.6,10.8-17.2,27-15.9,44.3
					c0.2,3.2,2.1,6.1,5,7.5c10.1,5.5,14.3,17.9,9.6,28.4c-3.1,8.7-0.7,12.5,8.9,12.6C69.7,163.4,86.9,163.3,104.1,163.3 M22.3,133
					c-4.5,0.2-7.9,3.9-7.9,8.4c-0.3,4.4,3,8.3,7.4,8.6c0.5,0,1.1,0,1.6,0c4.2,0.3,7.9-2.9,8.1-7.1c0-0.4,0-0.7,0-1.1
					C31.5,136,28,133.5,22.3,133 M79.4,37.1c0.5-4.5-2.7-8.5-7.2-9c-0.2,0-0.3,0-0.5,0c-4.3-0.9-8.5,1.9-9.3,6.2
					c-0.1,0.6-0.2,1.1-0.2,1.7c-0.6,4.3,2.4,8.2,6.6,8.8c0.3,0,0.6,0.1,0.9,0.1c4.5,0.8,8.8-2.3,9.5-6.8
					C79.3,37.7,79.4,37.4,79.4,37.1 M191.8,171c0.3-4.6-3.3-8.6-7.9-8.9c-4.6-0.3-8.6,3.3-8.9,7.9c0,0.2,0,0.4,0,0.6
					c-0.1,4.3,3.2,7.9,7.5,8c0.3,0,0.7,0,1,0c4.2,0.4,7.9-2.7,8.3-6.9C191.8,171.5,191.8,171.2,191.8,171" />
					<path id="Path_5831" class="st3" d="M220.7,20.8c-23.4,0-46.8,0.1-70.2-0.1c-5-0.6-9.9,1.7-12.8,5.8c-7,9.7-20.6,11.9-30.3,4.9
					c-1.2-0.9-2.3-1.8-3.3-2.9C95.4,20,95.3,6,103.9-2.7c0.4-0.4,0.7-0.7,1.1-1c8.6-8.3,22.3-8.1,30.6,0.5c1,1.1,1.9,2.2,2.7,3.5
					c2.8,4.7,8.1,7.2,13.5,6.3c47.9-0.1,95.8,0.1,143.7-0.2c6.9-0.4,13.7,2.4,18.4,7.5c16.6,17,34.7,32.7,49.8,51
					c7.6,9.3,13.2,20.6,20.8,30.4c6.4,8.1,2.8,18.4-4.9,25.7c-7.5,7-18.8,7.9-27.4,2.2c-8.2-4.8-11.9-14.9-8.6-23.8
					c0.8-5.3,3.5-10,7.7-13.3c3.8-1.7,5.5-6.2,3.7-10c-0.5-1.2-1.3-2.2-2.4-2.9c-16.4-16.7-33.1-33.1-49.5-49.8
					c-3.1-3.1-6.7-2.5-10.2-2.5C268.9,20.8,244.8,20.8,220.7,20.8 M363.4,96c-4.3-0.8-8.3,2.1-9.1,6.4c-0.1,0.6-0.1,1.2-0.1,1.8
					c0.1,5.9,5.4,8.3,10.4,8.5c4.3,0.5,8.1-2.6,8.6-6.8c0.1-0.7,0.1-1.4,0-2.1c0-4.4-3.5-7.9-7.9-7.9C364.6,95.8,364,95.9,363.4,96
					 M128.7,13.1c0.3-4.4-3-8.3-7.4-8.6c-0.2,0-0.4,0-0.6,0c-4.2-0.6-8.1,2.4-8.7,6.6c-0.1,0.7-0.1,1.4,0,2.2c-0.3,4.1,2.9,7.7,7,8
					c0.5,0,1,0,1.4,0c4.4,0.2,8.1-3.1,8.3-7.5C128.7,13.5,128.7,13.3,128.7,13.1" />
					<path id="Path_5832" class="st3" d="M304.1,60.1c-5.2,8,1.1,13.1,6.9,17.4c10.3,7.3,15.5,19.9,13.4,32.4
					c-1.1,10.1,0,20.5-0.3,30.7c-0.3,9.9-0.3,18.2,9.9,25.1c10.1,6.8,8.7,22.4-0.3,31.1c-8.7,8.7-22.8,8.7-31.5,0.1
					c-0.3-0.3-0.6-0.6-0.8-0.9c-8.3-8.5-8.1-22.2,0.5-30.5c0.3-0.3,0.6-0.6,1-0.9c5.3-3.8,8.1-10.2,7.2-16.7
					c-0.7-11.7-0.6-23.4,0.1-35.1c1.4-10.6-2.9-21.1-11.3-27.7c-3.9-4.2-9.6-6.1-15.2-5.3c-11.9,1.4-22.8-7.1-24.2-19
					c-0.1-1-0.2-2-0.2-3.1c-0.1-12.4,9.9-22.6,22.3-22.7c12.4-0.1,22.6,9.9,22.7,22.3C304.2,58.3,304.2,59.2,304.1,60.1 M290.3,57.9
					c0.4-4.4-2.8-8.2-7.2-8.6c-0.5,0-1,0-1.4,0c-4.6-0.2-8.5,3.4-8.6,8c-0.2,4.6,3.4,8.5,8,8.6c0.2,0,0.5,0,0.7,0
					c4.3,0.4,8-2.7,8.5-6.9C290.3,58.6,290.3,58.2,290.3,57.9 M326.6,180.5c0-4.5-3.7-8.2-8.2-8.1c0,0-0.1,0-0.1,0
					c-4.3-0.6-8.2,2.4-8.8,6.6c-0.1,0.7-0.1,1.4,0,2.1c-0.2,4.2,3.1,7.7,7.2,7.8c0.5,0,0.9,0,1.4-0.1c4.5,0.2,8.3-3.3,8.5-7.8
					C326.6,180.9,326.6,180.7,326.6,180.5" />
					<path id="Path_5833" class="st3" d="M186,219.1c5.8,0,11.7,0.1,17.5,0c7.3-0.1,13.5,1,19.1-7.7c6.7-10.5,25.3-8.4,33.7,1.6
					c7.7,9.8,6,23.9-3.8,31.6c-0.2,0.2-0.4,0.3-0.6,0.5c-9.1,7.3-22.3,5.8-29.6-3.3c-0.9-1.1-1.6-2.2-2.2-3.4
					c-1.9-3.9-6.1-6.1-10.4-5.4c-18.6,1.6-37.2,1.5-55.8-0.4c-13-2.1-26-6.4-39-9.8c-10.3-2.7-14.4-16.3-11-26.7
					c3.6-10.4,14.3-16.7,25.2-14.9c10.9,1.8,18.8,11.3,18.6,22.4c0,15.8,0,15.8,16.4,15.8L186,219.1 M134,202.8
					c-0.1-4.5-3.8-8.1-8.4-8.1c-4.3-0.5-8.1,2.6-8.6,6.8c0,0.4-0.1,0.7,0,1.1c-0.7,4.3,2.2,8.3,6.5,9c0.7,0.1,1.4,0.1,2.1,0
					C130.8,211.5,133.3,208,134,202.8 M237.3,218.1c-4.3-0.5-7.1,1.9-7.3,7.9c-0.7,4.2,2.2,8.2,6.5,8.8c0.7,0.1,1.3,0.1,2,0
					c4.1,0.6,7.9-2.3,8.5-6.4c0.1-0.5,0.1-0.9,0.1-1.4C247,221.9,245,217.9,237.3,218.1" />
					<path id="Path_5834" class="st3" d="M355,185.7c0.8-4.7-1.2-9.5-5.1-12.2c-9.4-8.1-10.5-22.3-2.4-31.6
					c8.1-9.4,22.3-10.5,31.6-2.4c1.3,1.1,2.4,2.3,3.4,3.7c7.4,9.5,5.7,23.3-3.8,30.7c-1.1,0.8-2.2,1.5-3.4,2.2
					c-4.5,1.7-7.1,6.4-6,11.1c1.3,7.7-1.9,15.5-8.2,20.1c-5.9,5-11.3,10.4-16.3,16.3c-4.8,6.6-12.9,10-21,8.7c-5-1-10.1,1.7-12,6.4
					c-5.9,10.4-19.1,14-29.4,8c-1.3-0.8-2.5-1.6-3.7-2.6c-9.5-7.8-10.9-21.8-3.1-31.2c0.3-0.3,0.6-0.7,0.9-1
					c8.4-9.2,22.7-9.9,31.9-1.5c0.7,0.6,1.3,1.3,1.9,2c5.2,7,15.1,8.5,22.2,3.3c1-0.8,2-1.7,2.8-2.7c5-4.9,9.6-10,14.7-14.7
					C353.9,195.2,355.9,190.4,355,185.7 M373.3,156.5c0.1-4.5-3.5-8.3-8-8.4c-0.1,0-0.2,0-0.3,0c-4.7-0.3-8.7,3.2-9.1,7.8
					c-0.3,4.7,3.2,8.7,7.8,9.1c0.1,0,0.2,0,0.3,0c4.7,0.4,8.8-3,9.2-7.7C373.3,157.1,373.3,156.8,373.3,156.5 M301.7,226.3
					c0-4.4-3.6-8-8-8c-0.2,0-0.3,0-0.5,0c-4.2-0.4-7.9,2.7-8.3,6.9c-0.1,0.8,0,1.5,0.1,2.3c0,4.1,3.3,7.4,7.3,7.5c0.5,0,1,0,1.5-0.1
					c4.3,0.1,7.8-3.3,7.9-7.6C301.8,226.9,301.7,226.6,301.7,226.3" />
					<path id="Path_5835" class="st3" d="M75.1,82.1c5.4,2.5,9.1-0.9,12.7-4.9c2.4-2.7,5.5-5,7.6-7.9c8.8-13.9,25.3-20.9,41.5-17.6
					c5.4,1.4,10.9-1.3,13.3-6.3c6.4-10.2,20-13.3,30.2-6.9c1.1,0.7,2.2,1.5,3.2,2.4c9.3,8.2,10.1,22.4,1.8,31.7
					c-0.2,0.2-0.4,0.4-0.6,0.7c-8.3,9-22.3,9.5-31.3,1.2c-0.9-0.8-1.7-1.7-2.4-2.7c-7-8-28.3-9.1-36.1-1.8
					c-4.8,4.5-9.1,9.5-14.1,13.8c-6.2,4-9,11.6-6.8,18.7c2.8,10.9-8.9,24.5-21,24.3c-12.8,0.3-23.4-9.8-23.7-22.5c0-0.3,0-0.6,0-0.8
					C49.8,91,60.5,81.3,73,81.9C73.7,81.9,74.4,82,75.1,82.1 M80.5,104.2c-0.6-5.1-3.1-8.3-8.4-8.4c-4.7,0-8.4,3.8-8.4,8.5
					c0,4.7,3.8,8.4,8.5,8.4l0,0c4.5,0.1,8.2-3.5,8.3-8C80.5,104.5,80.5,104.4,80.5,104.2 M176.9,57.5c-0.1-4.6-3.9-8.2-8.5-8.1
					c-4.6,0.1-8.2,3.9-8.1,8.5c-0.4,4.1,2.6,7.7,6.7,8c0.5,0,1,0,1.5,0c4.3,0.4,8.1-2.8,8.4-7.1C176.9,58.3,176.9,57.9,176.9,57.5" />
					<path id="Path_5836" class="st3" d="M306.2,346c-3.2,3-8.2,2.9-11.2-0.2c-0.5-0.6-1-1.2-1.4-1.9c0.1-9.7,0.2-19.5,0.1-29.2
					c0-3.7,1.4-8.2-3.5-10.4c-6.2-8.1-12.1-14.4-24.8-12.3c-12.2,2.1-22.3-10.9-21.5-23.6c0.8-12.2,11.3-21.6,23.5-21
					c12,0.4,21.5,10.4,21.1,22.4c0,0.6-0.1,1.3-0.1,1.9c-1.7,5.6,0.4,11.6,5.1,15.1c11.5,7.7,17.1,21.6,14.3,35.1
					c-0.4,6.5-0.4,13.1,0.1,19.6L306.2,346 M266.4,261.4c-4.4-0.3-8.3,3-8.6,7.4c0,0.1,0,0.3,0,0.4c-0.7,4.2,2.2,8.2,6.3,8.8
					c0.7,0.1,1.5,0.1,2.3,0c4.2,0.4,7.9-2.7,8.2-6.8c0-0.4,0-0.9,0-1.3C274.7,264.7,271.6,262,266.4,261.4" />
				</g>
			</g>
		</g>
	</g>
</svg>
