<svg xmlns="http://www.w3.org/2000/svg" width="97" height="94" viewBox="0 0 97 94">
  <g id="Group_6296" data-name="Group 6296" transform="translate(-0.25)">
    <g id="Group_6263" data-name="Group 6263" transform="translate(11.793 9.265)">
      <path id="Path_4346" data-name="Path 4346" d="M464.051,32.68h-6.085a1.2,1.2,0,0,0,0,2.4h6.085a5.286,5.286,0,0,1,5.28,5.28V82.686a5.286,5.286,0,0,1-5.28,5.28H420.463c-.029,0-.056.006-.084.008a1.264,1.264,0,0,0-.144.015c-.038.007-.074.021-.111.032a.706.706,0,0,0-.224.092c-.033.018-.066.032-.1.053a1.2,1.2,0,0,0-.117.093c-.02.018-.043.031-.063.05l-8.165,7.986V89.168a1.2,1.2,0,0,0-1.2-1.2h-4.918a5.286,5.286,0,0,1-5.28-5.28V40.364a5.286,5.286,0,0,1,5.28-5.28h7.227a1.2,1.2,0,1,0,0-2.4h-7.227a7.693,7.693,0,0,0-7.684,7.684V82.686a7.693,7.693,0,0,0,7.684,7.684h3.715v7.2a1.866,1.866,0,0,0,3.172,1.334l8.729-8.537h43.1a7.693,7.693,0,0,0,7.684-7.684V40.364a7.693,7.693,0,0,0-7.684-7.684" transform="translate(-397.653 -25.08)" fill="#80eeff"/>
      <rect id="Rectangle_2312" data-name="Rectangle 2312" width="3.969" height="3.969" transform="translate(29.543 39.937)" fill="#80eeff"/>
      <rect id="Rectangle_2313" data-name="Rectangle 2313" width="3.969" height="3.969" transform="translate(35.801 39.937)" fill="#80eeff"/>
      <rect id="Rectangle_2314" data-name="Rectangle 2314" width="3.969" height="3.969" transform="translate(42.042 39.937)" fill="#80eeff"/>
      <path id="Path_4347" data-name="Path 4347" d="M503.371,39.415V42a1.2,1.2,0,0,0,2.4,0V39.415a15.508,15.508,0,1,0-31.016,0V42a1.2,1.2,0,1,0,2.4,0V39.415a13.1,13.1,0,0,1,26.208,0" transform="translate(-452.258 -18.867)" fill="#80eeff"/>
      <path id="Path_4348" data-name="Path 4348" d="M430.334,37.473a8.044,8.044,0,0,0,8.035,8.035h1.447V28.032a18.99,18.99,0,0,1,37.98,0v3.651a1.2,1.2,0,0,0,2.38.243,5.628,5.628,0,0,1,.025,11.1V37.272a1.2,1.2,0,1,0-2.4,0v5.663c0,10.609-4.857,16.21-14.838,17.1a4.29,4.29,0,1,0-.075,2.417c10.656-.855,16.439-6.565,17.222-16.993a8.034,8.034,0,0,0,.1-15.965V28.032a21.394,21.394,0,1,0-42.788,0V29.5a8.045,8.045,0,0,0-7.078,7.976M458.807,63a1.89,1.89,0,1,1,1.89-1.89,1.892,1.892,0,0,1-1.89,1.89M437.412,43.023a5.632,5.632,0,0,1,0-11.1Z" transform="translate(-420.797 -6.638)" fill="#80eeff"/>
    </g>
    <rect id="Rectangle_2317" data-name="Rectangle 2317" width="97" height="94" rx="15" transform="translate(0.25)" fill="#80eeff" opacity="0"/>
  </g>
</svg>
