<svg xmlns="http://www.w3.org/2000/svg" width="97" height="94" viewBox="0 0 97 94">
  <g id="Group_6298" data-name="Group 6298" transform="translate(-0.484)">
    <g id="Group_6264" data-name="Group 6264" transform="translate(7.582 6.739)">
      <path id="Path_4349" data-name="Path 4349" d="M916.023,73.02a23.052,23.052,0,1,0,23.052,23.053A23.079,23.079,0,0,0,916.023,73.02m0,43.43A20.378,20.378,0,1,1,936.4,96.073a20.4,20.4,0,0,1-20.378,20.378" transform="translate(-865.371 -49.316)" fill="#80eeff"/>
      <path id="Path_4350" data-name="Path 4350" d="M866.072,15.294V10.351A5.215,5.215,0,0,0,865.165,0H852.536a5.215,5.215,0,0,0-.41,10.414v4.659a32.383,32.383,0,0,0-19.055,11.863H820.807a1.337,1.337,0,0,0,0,2.675H831.2a32.206,32.206,0,0,0-3.335,7.106H809.287a1.337,1.337,0,0,0,0,2.674h17.827a32.274,32.274,0,0,0-.836,6.526h-7.583a1.337,1.337,0,1,0,0,2.674h7.626a32.151,32.151,0,0,0,1.205,7.106H815.918a1.337,1.337,0,1,0,0,2.674h12.508a32.335,32.335,0,1,0,37.647-43.077M849.993,5.217a2.546,2.546,0,0,1,2.543-2.543h12.628a2.543,2.543,0,0,1,0,5.086H852.536a2.546,2.546,0,0,1-2.543-2.543m4.807,9.2V10.435h8.6v3.986h-8.6Zm3.8,62a29.661,29.661,0,1,1,29.66-29.661A29.694,29.694,0,0,1,858.6,76.417" transform="translate(-807.95)" fill="#80eeff"/>
      <path id="Path_4351" data-name="Path 4351" d="M908.357,139.915h-2.942a1.337,1.337,0,1,0,0,2.674h2.942a1.337,1.337,0,1,0,0-2.674" transform="translate(-872.873 -94.496)" fill="#80eeff"/>
      <path id="Path_4352" data-name="Path 4352" d="M1006.717,141.252a1.337,1.337,0,0,0,1.337,1.337H1011a1.337,1.337,0,1,0,0-2.674h-2.942a1.337,1.337,0,0,0-1.337,1.337" transform="translate(-942.193 -94.496)" fill="#80eeff"/>
      <path id="Path_4353" data-name="Path 4353" d="M961.267,89.68a1.337,1.337,0,0,0,1.337-1.337V85.4a1.337,1.337,0,0,0-2.674,0v2.943a1.337,1.337,0,0,0,1.337,1.337" transform="translate(-910.594 -56.775)" fill="#80eeff"/>
      <path id="Path_4354" data-name="Path 4354" d="M961.267,186.7a1.337,1.337,0,0,0-1.337,1.337v2.942a1.337,1.337,0,0,0,2.674,0v-2.942a1.337,1.337,0,0,0-1.337-1.337" transform="translate(-910.594 -126.095)" fill="#80eeff"/>
      <path id="Path_4355" data-name="Path 4355" d="M957.274,104.042l-9.188,9.022a4.206,4.206,0,0,0-3.81-.154l-4.611-4.48a1.337,1.337,0,0,0-1.864,1.918l4.51,4.383a4.24,4.24,0,1,0,7.582.308l9.255-9.088a1.337,1.337,0,1,0-1.874-1.908m-11.247,14.287a1.564,1.564,0,1,1,1.564-1.563,1.565,1.565,0,0,1-1.564,1.563" transform="translate(-895.375 -70.009)" fill="#80eeff"/>
    </g>
    <rect id="Rectangle_2316" data-name="Rectangle 2316" width="97" height="94" rx="15" transform="translate(0.484)" fill="#80eeff" opacity="0"/>
  </g>
</svg>
